<?xml version="1.0" encoding="utf-8"?>
<!-- Generator: Adobe Illustrator 15.0.0, SVG Export Plug-In  -->
<!DOCTYPE svg PUBLIC "-//W3C//DTD SVG 1.1//EN" "http://www.w3.org/Graphics/SVG/1.1/DTD/svg11.dtd" [
	<!ENTITY ns_flows "http://ns.adobe.com/Flows/1.0/">
]>
<svg version="1.1"
	 xmlns="http://www.w3.org/2000/svg" xmlns:xlink="http://www.w3.org/1999/xlink" xmlns:a="http://ns.adobe.com/AdobeSVGViewerExtensions/3.0/"
	 x="0px" y="0px" width="130px" height="78px" viewBox="-5.8 -8.9 130 78" enable-background="new -5.8 -8.9 130 78"
	 xml:space="preserve">
<defs>
</defs>
<g>
	<path fill="#253951" d="M0,52.7c0-1.9,0.9-3.4,2.7-4.4c0.7-0.4,1.5-0.6,2.3-0.6h6.9c1.9,0,3.6-0.7,4.9-2c1.4-1.3,2.1-3,2.1-4.9
		v-0.5c-1.3,0.9-2.7,1.6-4.2,1.9c-0.9,0.2-1.8,0.3-2.7,0.3c-1.3,0-2.6-0.2-3.7-0.6c-0.6-0.2-1.3-0.5-2.1-1c-1-0.6-1.7-1.1-2.2-1.6
		c-1.2-1.1-2.1-2.4-2.7-3.6c-0.7-1.4-1-2.9-1.1-4.4c0-0.2,0-4.4,0-12.5c1.9,0,3.4,0.9,4.4,2.7c0.4,0.7,0.6,1.4,0.6,2.2v7.4
		c0.1,1,0.3,1.8,0.8,2.7c0.5,1,1.3,1.9,2.3,2.6c1.1,0.8,2.4,1.2,3.9,1.2c1,0,2-0.2,2.8-0.6c0.5-0.2,0.9-0.4,1.2-0.7
		c0.8-0.6,1.5-1.3,2-2.1c0.5-0.9,0.9-1.8,1-2.8c0-0.2,0-2.8,0-7.7c0-0.8,0.2-1.6,0.5-2.2c1-1.8,2.5-2.7,4.4-2.7v22
		c0,3.3-1.1,6.1-3.5,8.4c-2.3,2.3-5.1,3.5-8.4,3.5H0z"/>
	<path fill="#253951" d="M27.4,42.5c0-0.9,0.2-1.7,0.7-2.5L42,23.7h-9.6c-1.4,0-2.5-0.5-3.5-1.4c-1-1-1.4-2.1-1.4-3.5h24
		c0,1.1-0.3,2.1-1,2.9L37,37.6h9.6c1.4,0,2.5,0.5,3.5,1.4c1,1,1.4,2.1,1.4,3.5H27.4z"/>
	<path fill="#253951" d="M71.6,39.8c-0.4-0.7-0.5-1.4-0.5-2.2v-7c0-1.9-0.7-3.6-2.1-4.9c-1.3-1.4-3-2.1-4.9-2.1s-3.6,0.7-4.9,2.1
		c-1.3,1.3-2,3-2,4.9c0,1.9,0.7,3.6,2,4.9c1.3,1.3,3,2,4.9,2h2c2,0,3.5,1,4.5,3c0.3,0.6,0.4,1.2,0.4,2h-7c-4,0-7.2-1.6-9.6-4.9
		c-1.5-2.1-2.2-4.4-2.2-7c0-3.3,1.1-6.1,3.5-8.4s5.1-3.5,8.4-3.5h0.6c0.4,0,0.9,0.1,1.3,0.1c0.6,0.1,1,0.2,1.4,0.3
		c0.5,0.1,0.9,0.3,1.3,0.4c0.9,0.4,1.6,0.8,2.4,1.3l0.1,0c0.5,0.4,1,0.8,1.4,1.2c2.3,2.3,3.5,5.1,3.5,8.4v11.9
		C74,42.5,72.6,41.6,71.6,39.8z"/>
	<path fill="#253951" d="M79.6,14.4c0-1.3,0.5-2.5,1.4-3.5c1-1,2.1-1.4,3.5-1.4v1.7c0,1.3-0.5,2.5-1.4,3.5S81,16,79.6,16V14.4z
		 M79.6,23.7c0-1.3,0.5-2.5,1.4-3.5c1-1,2.1-1.4,3.5-1.4v18.8c0,1.4-0.5,2.5-1.4,3.5c-1,1-2.1,1.4-3.5,1.4V23.7z"/>
</g>
</svg>
